<svg width="62" height="64" viewBox="0 0 62 64" fill="none" xmlns="http://www.w3.org/2000/svg">
<g id="Header &#226;&#134;&#146; Nav &#226;&#134;&#146; Link - Home &#226;&#134;&#146; SVG" clip-path="url(#clip0_91_207)">
<path id="Path 41731" fill-rule="evenodd" clip-rule="evenodd" d="M1.53784 21.799L30.7481 0.00756836L59.9598 21.799L30.7481 3.35987L1.53784 21.799ZM1.53784 37.0011L30.7495 63.8211L59.9612 35.325L30.7481 60.4688L1.53784 37.0011Z" fill="#82BF2A"/>
<path id="Path 41732" d="M0 24.4085H7.19368V26.6026H2.61543V28.108H6.77179V30.2982H2.61183V31.8215H7.31945V34.0156H0V24.4085ZM8.57506 24.4085H15.4029V26.6026H11.1876V28.5131H15.1054V30.7072H11.1876V34.0063H8.57147L8.57506 24.4085ZM19.2502 31.3341C19.3858 31.4942 19.5511 31.6209 19.7351 31.7059C19.9192 31.7909 20.1177 31.8322 20.3175 31.827C20.5117 31.8335 20.7048 31.7933 20.8832 31.7094C21.0615 31.6254 21.2208 31.4997 21.3496 31.3412C21.6307 30.9768 21.7745 30.5097 21.7521 30.0341V24.4085H24.3682V30.0341C24.3844 30.8005 24.2132 31.5578 23.8723 32.2282C23.5411 32.8535 23.0481 33.3583 22.455 33.6794C21.7917 34.0345 21.0599 34.2106 20.3211 34.1927C19.5753 34.21 18.8363 34.0341 18.165 33.6794C17.5666 33.3584 17.0671 32.854 16.7275 32.2282C16.3778 31.5609 16.2012 30.8025 16.2165 30.0341V24.4085H18.8326V30.0341C18.8098 30.5105 18.9598 30.9774 19.2502 31.3341ZM31.6676 24.4069H34.0537V34.0031H31.8278L28.1041 28.6698V34.0078H25.7058V24.4085H27.9403L31.669 29.7559L31.6676 24.4069ZM41.8684 25.0009C42.5608 25.3746 43.1386 25.9597 43.5315 26.6849C43.9207 27.4559 44.1236 28.3221 44.1214 29.2021C44.1191 30.0822 43.9117 30.9471 43.5186 31.7157C43.1159 32.4466 42.5271 33.0342 41.8238 33.4067C41.0369 33.8174 40.1725 34.0209 39.3004 34.0007H35.5321V24.4062H39.3866C40.245 24.3875 41.0951 24.5925 41.8662 25.0041L41.8684 25.0009ZM40.9082 31.0724C41.2938 30.5511 41.4905 29.8935 41.4609 29.2246C41.4892 28.5448 41.2784 27.8789 40.8715 27.3628C40.6795 27.1291 40.4429 26.9441 40.1783 26.821C39.9137 26.6977 39.6275 26.6393 39.3399 26.6496H38.144V31.769H39.4614C39.7345 31.7791 40.0062 31.7218 40.2562 31.6014C40.5062 31.4811 40.728 31.3008 40.9053 31.074L40.9082 31.0724ZM50.2623 34.0015L49.0951 31.4156H47.7116V34.0015H45.0954V24.4077H49.2015C50.1838 24.3404 51.1561 24.656 51.9448 25.2979C52.2726 25.6091 52.5307 25.9979 52.6993 26.4346C52.868 26.8712 52.9428 27.3442 52.918 27.8173C52.9328 28.4516 52.8013 29.08 52.5356 29.6446C52.2826 30.158 51.9017 30.5828 51.4367 30.8702L53.2198 34.0047H50.2609L50.2623 34.0015ZM47.7137 29.2215H49.2079C49.3729 29.2331 49.5383 29.2088 49.6944 29.1499C49.8507 29.0912 49.9946 28.9991 50.1178 28.8791C50.23 28.7473 50.3163 28.5921 50.3714 28.4227C50.4265 28.2533 50.4493 28.0734 50.4384 27.894C50.4491 27.7178 50.4261 27.5411 50.3709 27.375C50.3157 27.209 50.2296 27.0573 50.1178 26.9295C49.867 26.6912 49.5399 26.5706 49.2079 26.5941H47.7116L47.7137 29.2215ZM58.9883 26.7257C58.5462 26.5421 58.0802 26.4363 57.6076 26.4123C57.4204 26.4013 57.2345 26.4514 57.0736 26.5564C57.011 26.6017 56.9601 26.6639 56.926 26.7369C56.8919 26.81 56.8756 26.8914 56.8789 26.9733C56.8812 27.1018 56.9182 27.2267 56.9854 27.3323C57.0525 27.438 57.1467 27.5197 57.2562 27.5673C57.6395 27.7608 58.0387 27.9143 58.4485 28.0257C58.971 28.1803 59.4828 28.3749 59.9801 28.6079C60.3902 28.8109 60.7498 29.118 61.0288 29.5036C61.3421 29.9602 61.4997 30.5216 61.4744 31.0912C61.4919 31.698 61.3218 32.2935 60.9914 32.7822C60.6541 33.255 60.2004 33.6135 59.6833 33.8158C59.0944 34.0518 58.4708 34.1679 57.8434 34.1582C57.0722 34.1551 56.3067 34.0143 55.5773 33.7414C54.8665 33.4894 54.2022 33.1023 53.6151 32.5981L54.5962 30.4353C55.082 30.8829 55.6313 31.2412 56.2227 31.4963C56.7432 31.7543 57.3044 31.9008 57.8757 31.9281C58.1092 31.9429 58.3412 31.881 58.542 31.7502C58.6185 31.6955 58.6806 31.6201 58.7224 31.5314C58.7643 31.4427 58.7843 31.3437 58.7806 31.244C58.7791 31.1116 58.7412 30.9828 58.6719 30.8742C58.6026 30.7655 58.505 30.682 58.3918 30.6343C58.0039 30.4445 57.6004 30.2957 57.1865 30.19C56.6686 30.0503 56.1609 29.8695 55.6671 29.6493C55.2594 29.4575 54.9015 29.159 54.6249 28.7803C54.3183 28.3366 54.164 27.7899 54.1887 27.235C54.1771 26.6556 54.3355 26.0874 54.6408 25.6129C54.9638 25.1337 55.406 24.7655 55.915 24.5519C56.5251 24.2931 57.1759 24.1674 57.8304 24.1821C58.4973 24.1831 59.1608 24.2868 59.8012 24.4901C60.4032 24.6708 60.9784 24.945 61.5089 25.3042L60.5422 27.4983C60.0501 27.1879 59.5304 26.9328 58.9912 26.7366L58.9883 26.7257Z" fill="black"/>
</g>
<defs>
<clipPath id="clip0_91_207">
<rect width="61.81" height="64" fill="white"/>
</clipPath>
</defs>
</svg>
